Barlow-Bold Condensed.ufo
<glyph name="exclam" format="1">
  <advance width="302"/>
  <unicode hex="0021"/>
  <outline>
    <contour>
      <point x="225" y="248" type="line"/>
      <point x="245" y="700" type="line"/>
      <point x="57" y="700" type="line"/>
      <point x="77" y="248" type="line"/>
    </contour>
    <contour>
      <point x="212" y="0"/>
      <point x="255" y="47"/>
      <point x="255" y="105" type="curve" smooth="yes"/>
      <point x="255" y="163"/>
      <point x="203" y="209"/>
      <point x="150" y="209" type="curve" smooth="yes"/>
      <point x="97" y="209"/>
      <point x="45" y="163"/>
      <point x="45" y="105" type="curve" smooth="yes"/>
      <point x="45" y="47"/>
      <point x="88" y="0"/>
      <point x="150" y="0" type="curve" smooth="yes"/>
    </contour>
  </outline>
</glyph>
<glyph name="quotesingle" format="1">
  <advance width="186"/>
  <unicode hex="0027"/>
  <outline>
    <contour>
      <point x="164" y="460" type="line"/>
      <point x="184" y="700" type="line"/>
      <point x="-4" y="700" type="line"/>
      <point x="16" y="460" type="line"/>
    </contour>
  </outline>
</glyph>
<glyph name="parenleft" format="1">
  <advance width="371"/>
  <unicode hex="0028"/>
  <outline>
    <contour>
      <point x="321" y="-83" type="line"/>
      <point x="275" y="10"/>
      <point x="213" y="137"/>
      <point x="213" y="337" type="curve" smooth="yes"/>
      <point x="213" y="536"/>
      <point x="275" y="664"/>
      <point x="321" y="756" type="curve"/>
      <point x="135" y="756" type="line"/>
      <point x="65" y="665"/>
      <point x="3" y="536"/>
      <point x="3" y="337" type="curve" smooth="yes"/>
      <point x="3" y="137"/>
      <point x="65" y="9"/>
      <point x="135" y="-83" type="curve"/>
    </contour>
  </outline>
</glyph>
<glyph name="comma" format="1">
  <advance width="233"/>
  <unicode hex="002C"/>
  <outline>
    <contour>
      <point x="146" y="-111" type="line"/>
      <point x="209" y="160" type="line"/>
      <point x="41" y="160" type="line"/>
      <point x="24" y="-111" type="line"/>
    </contour>
  </outline>
</glyph>
<glyph name="hyphen" format="1">
  <advance width="311"/>
  <unicode hex="002D"/>
  <outline>
    <contour>
      <point x="299" y="165" type="line"/>
      <point x="299" y="325" type="line"/>
      <point x="12" y="325" type="line"/>
      <point x="12" y="165" type="line"/>
    </contour>
  </outline>
</glyph>
<glyph name="slash" format="1">
  <advance width="442"/>
  <unicode hex="002F"/>
  <outline>
    <contour>
      <point x="188" y="0" type="line"/>
      <point x="442" y="700" type="line"/>
      <point x="254" y="700" type="line"/>
      <point x="0" y="0" type="line"/>
    </contour>
  </outline>
</glyph>
<glyph name="one" format="1">
  <advance width="273"/>
  <unicode hex="0031"/>
  <outline>
    <contour>
      <point x="253" y="0" type="line"/>
      <point x="253" y="700" type="line"/>
      <point x="65" y="700" type="line"/>
      <point x="65" y="0" type="line"/>
    </contour>
    <contour>
      <point x="18" y="529" type="line"/>
      <point x="65" y="529" type="line"/>
      <point x="65" y="700" type="line"/>
      <point x="18" y="673" type="line"/>
    </contour>
  </outline>
</glyph>
<glyph name="three" format="1">
  <advance width="447"/>
  <unicode hex="0033"/>
  <outline>
    <contour>
      <point x="30" y="700" type="line"/>
      <point x="30" y="530" type="line"/>
      <point x="213" y="530" type="line"/>
      <point x="84" y="417" type="line"/>
      <point x="185" y="312" type="line"/>
      <point x="201" y="333"/>
      <point x="211" y="340"/>
      <point x="227" y="340" type="curve" smooth="yes"/>
      <point x="243" y="340"/>
      <point x="253" y="327"/>
      <point x="253" y="308" type="curve" smooth="yes"/>
      <point x="253" y="185" type="line" smooth="yes"/>
      <point x="253" y="166"/>
      <point x="243" y="153"/>
      <point x="227" y="153" type="curve" smooth="yes"/>
      <point x="212" y="153"/>
      <point x="202" y="166"/>
      <point x="202" y="185" type="curve" smooth="yes"/>
      <point x="202" y="232" type="line"/>
      <point x="14" y="232" type="line"/>
      <point x="14" y="172" type="line" smooth="yes"/>
      <point x="14" y="59"/>
      <point x="99" y="-7"/>
      <point x="227" y="-7" type="curve" smooth="yes"/>
      <point x="346" y="-7"/>
      <point x="431" y="59"/>
      <point x="431" y="172" type="curve" smooth="yes"/>
      <point x="431" y="276" type="line" smooth="yes"/>
      <point x="431" y="373"/>
      <point x="354" y="447"/>
      <point x="265" y="405" type="curve"/>
      <point x="263" y="363" type="line"/>
      <point x="431" y="530" type="line"/>
      <point x="431" y="700" type="line"/>
    </contour>
  </outline>
</glyph>
<glyph name="five" format="1">
  <advance width="456"/>
  <unicode hex="0035"/>
  <outline>
    <contour>
      <point x="357" y="-8"/>
      <point x="442" y="58"/>
      <point x="442" y="171" type="curve" smooth="yes"/>
      <point x="442" y="260" type="line" smooth="yes"/>
      <point x="442" y="374"/>
      <point x="383" y="444"/>
      <point x="288" y="444" type="curve" smooth="yes"/>
      <point x="177" y="444"/>
      <point x="145" y="344"/>
      <point x="145" y="260" type="curve"/>
      <point x="145" y="256" type="line"/>
      <point x="202" y="256" type="line"/>
      <point x="202" y="257" type="line" smooth="yes"/>
      <point x="202" y="272"/>
      <point x="212" y="282"/>
      <point x="228" y="282" type="curve" smooth="yes"/>
      <point x="244" y="282"/>
      <point x="254" y="269"/>
      <point x="254" y="250" type="curve" smooth="yes"/>
      <point x="254" y="184" type="line" smooth="yes"/>
      <point x="254" y="165"/>
      <point x="244" y="152"/>
      <point x="228" y="152" type="curve" smooth="yes"/>
      <point x="213" y="152"/>
      <point x="203" y="165"/>
      <point x="203" y="184" type="curve" smooth="yes"/>
      <point x="203" y="185" type="line"/>
      <point x="15" y="185" type="line"/>
      <point x="15" y="171" type="line" smooth="yes"/>
      <point x="15" y="58"/>
      <point x="98" y="-8"/>
      <point x="228" y="-8" type="curve" smooth="yes"/>
    </contour>
    <contour>
      <point x="202" y="254" type="line"/>
      <point x="202" y="530" type="line"/>
      <point x="440" y="530" type="line"/>
      <point x="440" y="700" type="line"/>
      <point x="14" y="700" type="line"/>
      <point x="14" y="254" type="line"/>
    </contour>
  </outline>
</glyph>
<glyph name="six" format="1">
  <advance width="456"/>
  <unicode hex="0036"/>
  <outline>
    <contour>
      <point x="357" y="-8"/>
      <point x="442" y="58"/>
      <point x="442" y="171" type="curve" smooth="yes"/>
      <point x="442" y="260" type="line" smooth="yes"/>
      <point x="442" y="390"/>
      <point x="366" y="444"/>
      <point x="286" y="444" type="curve" smooth="yes"/>
      <point x="172" y="444"/>
      <point x="166" y="339"/>
      <point x="167" y="327" type="curve"/>
      <point x="206" y="327" type="line"/>
      <point x="206" y="511" type="line" smooth="yes"/>
      <point x="206" y="530"/>
      <point x="216" y="543"/>
      <point x="230" y="543" type="curve" smooth="yes"/>
      <point x="244" y="543"/>
      <point x="254" y="530"/>
      <point x="254" y="511" type="curve" smooth="yes"/>
      <point x="254" y="470" type="line"/>
      <point x="442" y="470" type="line"/>
      <point x="442" y="524" type="line" smooth="yes"/>
      <point x="442" y="638"/>
      <point x="357" y="708"/>
      <point x="230" y="708" type="curve" smooth="yes"/>
      <point x="103" y="708"/>
      <point x="18" y="638"/>
      <point x="18" y="524" type="curve" smooth="yes"/>
      <point x="18" y="171" type="line" smooth="yes"/>
      <point x="18" y="58"/>
      <point x="103" y="-8"/>
      <point x="230" y="-8" type="curve" smooth="yes"/>
    </contour>
    <contour>
      <point x="216" y="152"/>
      <point x="206" y="165"/>
      <point x="206" y="184" type="curve" smooth="yes"/>
      <point x="206" y="252" type="line" smooth="yes"/>
      <point x="206" y="271"/>
      <point x="216" y="284"/>
      <point x="230" y="284" type="curve" smooth="yes"/>
      <point x="244" y="284"/>
      <point x="254" y="271"/>
      <point x="254" y="252" type="curve" smooth="yes"/>
      <point x="254" y="184" type="line" smooth="yes"/>
      <point x="254" y="165"/>
      <point x="244" y="152"/>
      <point x="230" y="152" type="curve" smooth="yes"/>
    </contour>
  </outline>
</glyph>
<glyph name="eight" format="1">
  <advance width="460"/>
  <unicode hex="0038"/>
  <outline>
    <contour>
      <point x="370" y="-8"/>
      <point x="443" y="69"/>
      <point x="443" y="194" type="curve" smooth="yes"/>
      <point x="443" y="231" type="line" smooth="yes"/>
      <point x="443" y="387"/>
      <point x="282" y="398"/>
      <point x="230" y="403" type="curve"/>
      <point x="178" y="398"/>
      <point x="17" y="387"/>
      <point x="17" y="231" type="curve" smooth="yes"/>
      <point x="17" y="195" type="line" smooth="yes"/>
      <point x="17" y="69"/>
      <point x="103" y="-8"/>
      <point x="230" y="-8" type="curve" smooth="yes"/>
    </contour>
    <contour>
      <point x="215" y="153"/>
      <point x="205" y="169"/>
      <point x="205" y="192" type="curve" smooth="yes"/>
      <point x="205" y="248" type="line" smooth="yes"/>
      <point x="205" y="272"/>
      <point x="215" y="288"/>
      <point x="230" y="288" type="curve"/>
      <point x="245" y="288"/>
      <point x="255" y="272"/>
      <point x="255" y="248" type="curve" smooth="yes"/>
      <point x="255" y="192" type="line" smooth="yes"/>
      <point x="255" y="169"/>
      <point x="245" y="153"/>
      <point x="230" y="153" type="curve" smooth="yes"/>
    </contour>
    <contour>
      <point x="330" y="316"/>
      <point x="444" y="359"/>
      <point x="444" y="486" type="curve" smooth="yes"/>
      <point x="444" y="525" type="line" smooth="yes"/>
      <point x="444" y="650"/>
      <point x="371" y="708"/>
      <point x="230" y="708" type="curve" smooth="yes"/>
      <point x="103" y="708"/>
      <point x="16" y="651"/>
      <point x="16" y="525" type="curve" smooth="yes"/>
      <point x="16" y="487" type="line" smooth="yes"/>
      <point x="16" y="359"/>
      <point x="133" y="316"/>
      <point x="230" y="294" type="curve"/>
    </contour>
    <contour>
      <point x="214" y="422"/>
      <point x="205" y="438"/>
      <point x="205" y="462" type="curve" smooth="yes"/>
      <point x="205" y="508" type="line" smooth="yes"/>
      <point x="205" y="531"/>
      <point x="214" y="547"/>
      <point x="230" y="547" type="curve" smooth="yes"/>
      <point x="245" y="547"/>
      <point x="255" y="531"/>
      <point x="255" y="508" type="curve" smooth="yes"/>
      <point x="255" y="462" type="line" smooth="yes"/>
      <point x="255" y="438"/>
      <point x="245" y="422"/>
      <point x="230" y="422" type="curve" smooth="yes"/>
    </contour>
  </outline>
</glyph>
<glyph name="at" format="1">
  <advance width="862"/>
  <unicode hex="0040"/>
  <outline>
    <contour>
      <point x="641" y="-62"/>
      <point x="782" y="80"/>
      <point x="782" y="292" type="curve" smooth="yes"/>
      <point x="782" y="503"/>
      <point x="641" y="644"/>
      <point x="429" y="644" type="curve" smooth="yes"/>
      <point x="218" y="644"/>
      <point x="77" y="503"/>
      <point x="77" y="292" type="curve" smooth="yes"/>
      <point x="77" y="80"/>
      <point x="218" y="-62"/>
      <point x="429" y="-62" type="curve" smooth="yes"/>
    </contour>
    <contour>
      <point x="278" y="38"/>
      <point x="177" y="140"/>
      <point x="177" y="292" type="curve" smooth="yes"/>
      <point x="177" y="443"/>
      <point x="278" y="544"/>
      <point x="429" y="544" type="curve" smooth="yes"/>
      <point x="581" y="544"/>
      <point x="682" y="443"/>
      <point x="682" y="292" type="curve" smooth="yes"/>
      <point x="682" y="140"/>
      <point x="581" y="38"/>
      <point x="429" y="38" type="curve" smooth="yes"/>
    </contour>
    <component base="a" xOffset="292" yOffset="138" xScale="0.59" yScale="0.59"/>
  </outline>
</glyph>
<glyph name="A" format="1">
  <advance width="519"/>
  <unicode hex="0041"/>
  <outline>
    <contour>
      <point x="194" y="0" type="line"/>
      <point x="264" y="458" type="line"/>
      <point x="321" y="0" type="line"/>
      <point x="513" y="0" type="line"/>
      <point x="365" y="700" type="line"/>
      <point x="154" y="700" type="line"/>
      <point x="6" y="0" type="line"/>
    </contour>
    <contour>
      <point x="393" y="95" type="line"/>
      <point x="393" y="239" type="line"/>
      <point x="123" y="239" type="line"/>
      <point x="123" y="95" type="line"/>
    </contour>
  </outline>
</glyph>
<glyph name="B" format="1">
  <advance width="468"/>
  <unicode hex="0042"/>
  <outline>
    <contour>
      <point x="204" y="539" type="line"/>
      <point x="218" y="539" type="line"/>
      <point x="248" y="539"/>
      <point x="263" y="520"/>
      <point x="263" y="483" type="curve" smooth="yes"/>
      <point x="263" y="447"/>
      <point x="248" y="427"/>
      <point x="218" y="427" type="curve"/>
      <point x="204" y="427" type="line"/>
    </contour>
    <contour>
      <point x="181" y="319" type="line" smooth="yes"/>
      <point x="359" y="319"/>
      <point x="447" y="369"/>
      <point x="447" y="503" type="curve" smooth="yes"/>
      <point x="447" y="640"/>
      <point x="354" y="700"/>
      <point x="215" y="700" type="curve"/>
      <point x="16" y="700" type="line"/>
      <point x="16" y="319" type="line"/>
    </contour>
    <contour>
      <point x="204" y="293" type="line"/>
      <point x="228" y="293" type="line" smooth="yes"/>
      <point x="253" y="293"/>
      <point x="270" y="266"/>
      <point x="270" y="225" type="curve" smooth="yes"/>
      <point x="270" y="182"/>
      <point x="252" y="161"/>
      <point x="227" y="161" type="curve" smooth="yes"/>
      <point x="204" y="161" type="line"/>
    </contour>
    <contour>
      <point x="242" y="0" type="line" smooth="yes"/>
      <point x="361" y="0"/>
      <point x="458" y="65"/>
      <point x="458" y="201" type="curve" smooth="yes"/>
      <point x="458" y="368"/>
      <point x="313" y="418"/>
      <point x="179" y="418" type="curve"/>
      <point x="16" y="418" type="line"/>
      <point x="16" y="0" type="line"/>
    </contour>
  </outline>
</glyph>
<glyph name="C" format="1">
  <advance width="464"/>
  <unicode hex="0043"/>
  <outline>
    <contour>
      <point x="366" y="-11"/>
      <point x="454" y="75"/>
      <point x="454" y="205" type="curve" smooth="yes"/>
      <point x="454" y="224" type="line"/>
      <point x="266" y="231" type="line"/>
      <point x="266" y="186" type="line" smooth="yes"/>
      <point x="266" y="164"/>
      <point x="254" y="150"/>
      <point x="235" y="150" type="curve" smooth="yes"/>
      <point x="216" y="150"/>
      <point x="204" y="164"/>
      <point x="204" y="186" type="curve" smooth="yes"/>
      <point x="204" y="515" type="line" smooth="yes"/>
      <point x="204" y="537"/>
      <point x="216" y="552"/>
      <point x="235" y="552" type="curve" smooth="yes"/>
      <point x="254" y="552"/>
      <point x="266" y="537"/>
      <point x="266" y="515" type="curve" smooth="yes"/>
      <point x="266" y="470" type="line"/>
      <point x="454" y="477" type="line"/>
      <point x="454" y="497" type="line" smooth="yes"/>
      <point x="454" y="627"/>
      <point x="366" y="713"/>
      <point x="235" y="713" type="curve" smooth="yes"/>
      <point x="103" y="713"/>
      <point x="16" y="627"/>
      <point x="16" y="497" type="curve" smooth="yes"/>
      <point x="16" y="205" type="line" smooth="yes"/>
      <point x="16" y="75"/>
      <point x="103" y="-11"/>
      <point x="235" y="-11" type="curve" smooth="yes"/>
    </contour>
  </outline>
</glyph>
<glyph name="D" format="1">
  <advance width="467"/>
  <unicode hex="0044"/>
  <outline>
    <contour>
      <point x="230" y="0" type="line" smooth="yes"/>
      <point x="364" y="0"/>
      <point x="453" y="80"/>
      <point x="453" y="200" type="curve" smooth="yes"/>
      <point x="453" y="500" type="line" smooth="yes"/>
      <point x="453" y="620"/>
      <point x="364" y="700"/>
      <point x="230" y="700" type="curve" smooth="yes"/>
      <point x="18" y="700" type="line"/>
      <point x="18" y="0" type="line"/>
    </contour>
    <contour>
      <point x="206" y="530" type="line"/>
      <point x="225" y="530" type="line" smooth="yes"/>
      <point x="249" y="530"/>
      <point x="265" y="510"/>
      <point x="265" y="479" type="curve"/>
      <point x="265" y="222" type="line"/>
      <point x="263" y="192"/>
      <point x="247" y="172"/>
      <point x="226" y="171" type="curve" smooth="yes"/>
      <point x="206" y="170" type="line"/>
    </contour>
  </outline>
</glyph>
<glyph name="E" format="1">
  <advance width="426"/>
  <unicode hex="0045"/>
  <outline>
    <contour>
      <point x="418" y="0" type="line"/>
      <point x="418" y="170" type="line"/>
      <point x="206" y="170" type="line"/>
      <point x="206" y="530" type="line"/>
      <point x="418" y="530" type="line"/>
      <point x="418" y="700" type="line"/>
      <point x="18" y="700" type="line"/>
      <point x="18" y="0" type="line"/>
    </contour>
    <contour>
      <point x="326" y="265" type="line"/>
      <point x="326" y="435" type="line"/>
      <point x="94" y="435" type="line"/>
      <point x="94" y="265" type="line"/>
    </contour>
    <contour>
      <point x="218" y="713" type="move" name="top"/>
    </contour>
  </outline>
</glyph>
<glyph name="G" format="1">
  <advance width="464"/>
  <unicode hex="0047"/>
  <outline>
    <contour>
      <point x="366" y="-8"/>
      <point x="454" y="72"/>
      <point x="454" y="196" type="curve" smooth="yes"/>
      <point x="454" y="395" type="line"/>
      <point x="237" y="395" type="line"/>
      <point x="237" y="250" type="line"/>
      <point x="266" y="250" type="line"/>
      <point x="266" y="195" type="line" smooth="yes"/>
      <point x="266" y="170"/>
      <point x="254" y="153"/>
      <point x="235" y="153" type="curve" smooth="yes"/>
      <point x="216" y="153"/>
      <point x="204" y="170"/>
      <point x="204" y="195" type="curve" smooth="yes"/>
      <point x="204" y="505" type="line" smooth="yes"/>
      <point x="204" y="530"/>
      <point x="216" y="547"/>
      <point x="235" y="547" type="curve" smooth="yes"/>
      <point x="254" y="547"/>
      <point x="266" y="530"/>
      <point x="266" y="505" type="curve" smooth="yes"/>
      <point x="266" y="455" type="line"/>
      <point x="454" y="455" type="line"/>
      <point x="454" y="503" type="line" smooth="yes"/>
      <point x="454" y="628"/>
      <point x="366" y="708"/>
      <point x="235" y="708" type="curve" smooth="yes"/>
      <point x="103" y="708"/>
      <point x="16" y="629"/>
      <point x="16" y="505" type="curve" smooth="yes"/>
      <point x="16" y="196" type="line" smooth="yes"/>
      <point x="16" y="72"/>
      <point x="103" y="-8"/>
      <point x="235" y="-8" type="curve" smooth="yes"/>
    </contour>
  </outline>
</glyph>
<glyph name="H" format="1">
  <advance width="469"/>
  <unicode hex="0048"/>
  <outline>
    <contour>
      <point x="451" y="0" type="line"/>
      <point x="451" y="700" type="line"/>
      <point x="263" y="700" type="line"/>
      <point x="263" y="0" type="line"/>
    </contour>
    <contour>
      <point x="206" y="0" type="line"/>
      <point x="206" y="700" type="line"/>
      <point x="18" y="700" type="line"/>
      <point x="18" y="0" type="line"/>
    </contour>
    <contour>
      <point x="353" y="265" type="line"/>
      <point x="353" y="435" type="line"/>
      <point x="118" y="435" type="line"/>
      <point x="118" y="265" type="line"/>
    </contour>
  </outline>
</glyph>
<glyph name="J" format="1">
  <advance width="460"/>
  <unicode hex="004A"/>
  <outline>
    <contour>
      <point x="354" y="-8"/>
      <point x="442" y="72"/>
      <point x="442" y="192" type="curve" smooth="yes"/>
      <point x="442" y="700" type="line"/>
      <point x="254" y="700" type="line"/>
      <point x="254" y="190" type="line" smooth="yes"/>
      <point x="254" y="168"/>
      <point x="241" y="153"/>
      <point x="223" y="153" type="curve" smooth="yes"/>
      <point x="206" y="153"/>
      <point x="194" y="168"/>
      <point x="194" y="190" type="curve" smooth="yes"/>
      <point x="194" y="265" type="line"/>
      <point x="6" y="265" type="line"/>
      <point x="6" y="192" type="line" smooth="yes"/>
      <point x="6" y="72"/>
      <point x="93" y="-8"/>
      <point x="223" y="-8" type="curve" smooth="yes"/>
    </contour>
  </outline>
</glyph>
<glyph name="K" format="1">
  <advance width="500"/>
  <unicode hex="004B"/>
  <outline>
    <contour>
      <point x="206" y="0" type="line"/>
      <point x="206" y="183" type="line"/>
      <point x="237" y="249" type="line"/>
      <point x="300" y="-4" type="line"/>
      <point x="498" y="0" type="line"/>
      <point x="360" y="392" type="line"/>
      <point x="500" y="700" type="line"/>
      <point x="302" y="700" type="line"/>
      <point x="206" y="456" type="line"/>
      <point x="206" y="700" type="line"/>
      <point x="18" y="700" type="line"/>
      <point x="18" y="0" type="line"/>
    </contour>
  </outline>
</glyph>
<glyph name="L" format="1">
  <advance width="431"/>
  <unicode hex="004C"/>
  <outline>
    <contour>
      <point x="427" y="0" type="line"/>
      <point x="427" y="170" type="line"/>
      <point x="206" y="170" type="line"/>
      <point x="206" y="700" type="line"/>
      <point x="18" y="700" type="line"/>
      <point x="18" y="0" type="line"/>
    </contour>
  </outline>
</glyph>
<glyph name="M" format="1">
  <advance width="528"/>
  <unicode hex="004D"/>
  <outline>
    <contour>
      <point x="204" y="0" type="line"/>
      <point x="204" y="439" type="line"/>
      <point x="263" y="310" type="line"/>
      <point x="264" y="310" type="line"/>
      <point x="324" y="436" type="line"/>
      <point x="324" y="0" type="line"/>
      <point x="512" y="0" type="line"/>
      <point x="512" y="700" type="line"/>
      <point x="329" y="700" type="line"/>
      <point x="264" y="560" type="line"/>
      <point x="199" y="700" type="line"/>
      <point x="16" y="700" type="line"/>
      <point x="16" y="0" type="line"/>
    </contour>
  </outline>
</glyph>
<glyph name="N" format="1">
  <advance width="508"/>
  <unicode hex="004E"/>
  <outline>
    <contour>
      <point x="202" y="0" type="line"/>
      <point x="200" y="346" type="line"/>
      <point x="286" y="0" type="line"/>
      <point x="492" y="0" type="line"/>
      <point x="492" y="700" type="line"/>
      <point x="306" y="700" type="line"/>
      <point x="307" y="356" type="line"/>
      <point x="220" y="700" type="line"/>
      <point x="16" y="700" type="line"/>
      <point x="16" y="0" type="line"/>
    </contour>
  </outline>
</glyph>
<glyph name="O" format="1">
  <advance width="462"/>
  <unicode hex="004F"/>
  <outline>
    <contour>
      <point x="362" y="-8"/>
      <point x="450" y="75"/>
      <point x="450" y="206" type="curve" smooth="yes"/>
      <point x="450" y="494" type="line" smooth="yes"/>
      <point x="450" y="625"/>
      <point x="362" y="708"/>
      <point x="231" y="708" type="curve" smooth="yes"/>
      <point x="99" y="708"/>
      <point x="12" y="625"/>
      <point x="12" y="494" type="curve" smooth="yes"/>
      <point x="12" y="206" type="line" smooth="yes"/>
      <point x="12" y="75"/>
      <point x="99" y="-8"/>
      <point x="231" y="-8" type="curve" smooth="yes"/>
    </contour>
    <contour>
      <point x="212" y="153"/>
      <point x="200" y="170"/>
      <point x="200" y="195" type="curve" smooth="yes"/>
      <point x="200" y="505" type="line" smooth="yes"/>
      <point x="200" y="530"/>
      <point x="212" y="547"/>
      <point x="231" y="547" type="curve" smooth="yes"/>
      <point x="250" y="547"/>
      <point x="262" y="530"/>
      <point x="262" y="505" type="curve" smooth="yes"/>
      <point x="262" y="195" type="line" smooth="yes"/>
      <point x="262" y="170"/>
      <point x="250" y="153"/>
      <point x="231" y="153" type="curve" smooth="yes"/>
    </contour>
    <contour>
      <point x="231" y="708" type="move" name="top"/>
    </contour>
  </outline>
</glyph>
<glyph name="P" format="1">
  <advance width="473"/>
  <unicode hex="0050"/>
  <outline>
    <contour>
      <point x="204" y="0" type="line"/>
      <point x="204" y="539" type="line"/>
      <point x="223" y="539" type="line" smooth="yes"/>
      <point x="252" y="539"/>
      <point x="273" y="517"/>
      <point x="273" y="471" type="curve" smooth="yes"/>
      <point x="273" y="426"/>
      <point x="252" y="405"/>
      <point x="223" y="405" type="curve" smooth="yes"/>
      <point x="188" y="405" type="line"/>
      <point x="188" y="260" type="line"/>
      <point x="266" y="260" type="line" smooth="yes"/>
      <point x="382" y="260"/>
      <point x="461" y="345"/>
      <point x="461" y="475" type="curve" smooth="yes"/>
      <point x="461" y="608"/>
      <point x="378" y="700"/>
      <point x="256" y="700" type="curve" smooth="yes"/>
      <point x="16" y="700" type="line"/>
      <point x="16" y="0" type="line"/>
    </contour>
  </outline>
</glyph>
<glyph name="Q" format="1">
  <advance width="462"/>
  <unicode hex="0051"/>
  <outline>
    <contour>
      <point x="322" y="-87" type="line"/>
      <point x="322" y="113" type="line"/>
      <point x="134" y="113" type="line"/>
      <point x="134" y="-87" type="line"/>
    </contour>
    <contour>
      <point x="211" y="153"/>
      <point x="200" y="170"/>
      <point x="200" y="195" type="curve" smooth="yes"/>
      <point x="200" y="505" type="line" smooth="yes"/>
      <point x="200" y="530"/>
      <point x="211" y="547"/>
      <point x="228" y="547" type="curve" smooth="yes"/>
      <point x="246" y="547"/>
      <point x="257" y="530"/>
      <point x="257" y="505" type="curve" smooth="yes"/>
      <point x="257" y="195" type="line" smooth="yes"/>
      <point x="257" y="170"/>
      <point x="246" y="153"/>
      <point x="228" y="153" type="curve" smooth="yes"/>
    </contour>
    <contour>
      <point x="359" y="-8"/>
      <point x="445" y="81"/>
      <point x="445" y="215" type="curve" smooth="yes"/>
      <point x="445" y="485" type="line" smooth="yes"/>
      <point x="445" y="619"/>
      <point x="359" y="708"/>
      <point x="228" y="708" type="curve" smooth="yes"/>
      <point x="98" y="708"/>
      <point x="12" y="619"/>
      <point x="12" y="485" type="curve" smooth="yes"/>
      <point x="12" y="215" type="line" smooth="yes"/>
      <point x="12" y="81"/>
      <point x="98" y="-8"/>
      <point x="228" y="-8" type="curve" smooth="yes"/>
    </contour>
  </outline>
</glyph>
<glyph name="R" format="1">
  <advance width="482"/>
  <unicode hex="0052"/>
  <outline>
    <contour>
      <point x="204" y="0" type="line"/>
      <point x="204" y="539" type="line"/>
      <point x="223" y="539" type="line" smooth="yes"/>
      <point x="252" y="539"/>
      <point x="273" y="518"/>
      <point x="273" y="475" type="curve" smooth="yes"/>
      <point x="273" y="434"/>
      <point x="252" y="412"/>
      <point x="223" y="412" type="curve" smooth="yes"/>
      <point x="188" y="412" type="line"/>
      <point x="188" y="269" type="line"/>
      <point x="266" y="269" type="line" smooth="yes"/>
      <point x="382" y="269"/>
      <point x="461" y="352"/>
      <point x="461" y="477" type="curve" smooth="yes"/>
      <point x="461" y="608"/>
      <point x="378" y="700"/>
      <point x="256" y="700" type="curve" smooth="yes"/>
      <point x="16" y="700" type="line"/>
      <point x="16" y="0" type="line"/>
    </contour>
    <contour>
      <point x="470" y="0" type="line"/>
      <point x="371" y="349" type="line"/>
      <point x="192" y="349" type="line"/>
      <point x="276" y="0" type="line"/>
    </contour>
  </outline>
</glyph>
<glyph name="S" format="1">
  <advance width="451"/>
  <unicode hex="0053"/>
  <outline>
    <contour>
      <point x="354" y="-8"/>
      <point x="441" y="70"/>
      <point x="441" y="187" type="curve" smooth="yes"/>
      <point x="441" y="287"/>
      <point x="380" y="338"/>
      <point x="275" y="412" type="curve" smooth="yes"/>
      <point x="212" y="457"/>
      <point x="195" y="470"/>
      <point x="195" y="500" type="curve" smooth="yes"/>
      <point x="195" y="524"/>
      <point x="206" y="538"/>
      <point x="223" y="538" type="curve" smooth="yes"/>
      <point x="240" y="538"/>
      <point x="252" y="524"/>
      <point x="252" y="504" type="curve" smooth="yes"/>
      <point x="252" y="472" type="line"/>
      <point x="437" y="472" type="line"/>
      <point x="437" y="509" type="line" smooth="yes"/>
      <point x="437" y="628"/>
      <point x="352" y="708"/>
      <point x="223" y="708" type="curve" smooth="yes"/>
      <point x="95" y="708"/>
      <point x="10" y="628"/>
      <point x="10" y="510" type="curve" smooth="yes"/>
      <point x="10" y="387"/>
      <point x="101" y="322"/>
      <point x="173" y="272" type="curve" smooth="yes"/>
      <point x="243" y="224"/>
      <point x="256" y="215"/>
      <point x="256" y="194" type="curve" smooth="yes"/>
      <point x="256" y="175"/>
      <point x="244" y="162"/>
      <point x="228" y="162" type="curve" smooth="yes"/>
      <point x="212" y="162"/>
      <point x="200" y="176"/>
      <point x="200" y="198" type="curve" smooth="yes"/>
      <point x="200" y="229" type="line"/>
      <point x="14" y="229" type="line"/>
      <point x="14" y="180" type="line" smooth="yes"/>
      <point x="14" y="70"/>
      <point x="98" y="-8"/>
      <point x="227" y="-8" type="curve" smooth="yes"/>
    </contour>
  </outline>
</glyph>
<glyph name="V" format="1">
  <advance width="509"/>
  <unicode hex="0056"/>
  <outline>
    <contour>
      <point x="355" y="0" type="line"/>
      <point x="503" y="700" type="line"/>
      <point x="305" y="700" type="line"/>
      <point x="259" y="305" type="line"/>
      <point x="209" y="700" type="line"/>
      <point x="6" y="700" type="line"/>
      <point x="152" y="0" type="line"/>
    </contour>
  </outline>
</glyph>
<glyph name="W" format="1">
  <advance width="704"/>
  <unicode hex="0057"/>
  <outline>
    <contour>
      <point x="313" y="0" type="line"/>
      <point x="352" y="362" type="line"/>
      <point x="400" y="0" type="line"/>
      <point x="564" y="0" type="line"/>
      <point x="698" y="700" type="line"/>
      <point x="504" y="700" type="line"/>
      <point x="483" y="352" type="line"/>
      <point x="432" y="700" type="line"/>
      <point x="266" y="700" type="line"/>
      <point x="231" y="352" type="line"/>
      <point x="204" y="700" type="line"/>
      <point x="6" y="700" type="line"/>
      <point x="148" y="0" type="line"/>
    </contour>
  </outline>
</glyph>
<glyph name="X" format="1">
  <advance width="491"/>
  <unicode hex="0058"/>
  <outline>
    <contour>
      <point x="197" y="0" type="line"/>
      <point x="246" y="162" type="line"/>
      <point x="295" y="0" type="line"/>
      <point x="485" y="0" type="line"/>
      <point x="345" y="350" type="line"/>
      <point x="485" y="700" type="line"/>
      <point x="294" y="700" type="line"/>
      <point x="246" y="537" type="line"/>
      <point x="198" y="700" type="line"/>
      <point x="6" y="700" type="line"/>
      <point x="146" y="350" type="line"/>
      <point x="6" y="0" type="line"/>
    </contour>
  </outline>
</glyph>
<glyph name="Y" format="1">
  <advance width="496"/>
  <unicode hex="0059"/>
  <outline>
    <contour>
      <point x="341" y="2" type="line"/>
      <point x="341" y="251" type="line"/>
      <point x="490" y="700" type="line"/>
      <point x="292" y="700" type="line"/>
      <point x="248" y="471" type="line"/>
      <point x="204" y="700" type="line"/>
      <point x="6" y="700" type="line"/>
      <point x="153" y="251" type="line"/>
      <point x="153" y="2" type="line"/>
    </contour>
  </outline>
</glyph>
<glyph name="Z" format="1">
  <advance width="412"/>
  <unicode hex="005A"/>
  <outline>
    <contour>
      <point x="404" y="0" type="line"/>
      <point x="404" y="170" type="line"/>
      <point x="202" y="170" type="line"/>
      <point x="404" y="530" type="line"/>
      <point x="404" y="700" type="line"/>
      <point x="6" y="700" type="line"/>
      <point x="6" y="530" type="line"/>
      <point x="206" y="530" type="line"/>
      <point x="6" y="170" type="line"/>
      <point x="6" y="0" type="line"/>
    </contour>
  </outline>
</glyph>
<glyph name="a" format="1">
  <advance width="461"/>
  <unicode hex="0061"/>
  <outline>
    <contour>
      <point x="445" y="0" type="line"/>
      <point x="445" y="360" type="line" smooth="yes"/>
      <point x="445" y="461"/>
      <point x="358" y="528"/>
      <point x="228" y="528" type="curve" smooth="yes"/>
      <point x="101" y="528"/>
      <point x="13" y="450"/>
      <point x="13" y="360" type="curve" smooth="yes"/>
      <point x="13" y="339" type="line"/>
      <point x="202" y="332" type="line"/>
      <point x="202" y="337" type="line" smooth="yes"/>
      <point x="202" y="355"/>
      <point x="213" y="367"/>
      <point x="228" y="367" type="curve" smooth="yes"/>
      <point x="245" y="367"/>
      <point x="257" y="355"/>
      <point x="257" y="337" type="curve" smooth="yes"/>
      <point x="257" y="0" type="line"/>
    </contour>
    <contour>
      <point x="260" y="-7"/>
      <point x="296" y="59"/>
      <point x="296" y="197" type="curve"/>
      <point x="296" y="313" type="line"/>
      <point x="217" y="313" type="line"/>
      <point x="91" y="313"/>
      <point x="8" y="297"/>
      <point x="8" y="151" type="curve" smooth="yes"/>
      <point x="8" y="7"/>
      <point x="86" y="-9"/>
      <point x="155" y="-8" type="curve" smooth="yes"/>
    </contour>
    <contour>
      <point x="212" y="125"/>
      <point x="200" y="134"/>
      <point x="200" y="153" type="curve" smooth="yes"/>
      <point x="200" y="170"/>
      <point x="212" y="185"/>
      <point x="231" y="185" type="curve"/>
      <point x="257" y="185" type="line"/>
      <point x="257" y="152" type="line" smooth="yes"/>
      <point x="257" y="135"/>
      <point x="239" y="125"/>
      <point x="225" y="125" type="curve" smooth="yes"/>
    </contour>
  </outline>
</glyph>
<glyph name="c" format="1">
  <advance width="445"/>
  <unicode hex="0063"/>
  <outline>
    <contour>
      <point x="361" y="-7"/>
      <point x="437" y="67"/>
      <point x="437" y="190" type="curve" smooth="yes"/>
      <point x="437" y="207" type="line"/>
      <point x="249" y="212" type="line"/>
      <point x="249" y="185" type="line" smooth="yes"/>
      <point x="249" y="164"/>
      <point x="241" y="153"/>
      <point x="225" y="153" type="curve" smooth="yes"/>
      <point x="208" y="153"/>
      <point x="200" y="164"/>
      <point x="200" y="185" type="curve" smooth="yes"/>
      <point x="200" y="336" type="line" smooth="yes"/>
      <point x="200" y="357"/>
      <point x="208" y="368"/>
      <point x="225" y="368" type="curve" smooth="yes"/>
      <point x="241" y="368"/>
      <point x="249" y="357"/>
      <point x="249" y="336" type="curve" smooth="yes"/>
      <point x="249" y="307" type="line"/>
      <point x="437" y="313" type="line"/>
      <point x="437" y="330" type="line" smooth="yes"/>
      <point x="437" y="454"/>
      <point x="361" y="528"/>
      <point x="225" y="528" type="curve" smooth="yes"/>
      <point x="89" y="528"/>
      <point x="12" y="454"/>
      <point x="12" y="330" type="curve" smooth="yes"/>
      <point x="12" y="190" type="line" smooth="yes"/>
      <point x="12" y="67"/>
      <point x="89" y="-7"/>
      <point x="225" y="-7" type="curve" smooth="yes"/>
    </contour>
  </outline>
</glyph>
<glyph name="e" format="1">
  <advance width="445"/>
  <unicode hex="0065"/>
  <outline>
    <contour>
      <point x="358" y="-7"/>
      <point x="429" y="67"/>
      <point x="428" y="181" type="curve"/>
      <point x="247" y="193" type="line"/>
      <point x="246" y="168"/>
      <point x="238" y="154"/>
      <point x="224" y="154" type="curve" smooth="yes"/>
      <point x="207" y="154"/>
      <point x="198" y="168"/>
      <point x="198" y="193" type="curve" smooth="yes"/>
      <point x="198" y="332" type="line" smooth="yes"/>
      <point x="198" y="354"/>
      <point x="207" y="367"/>
      <point x="223" y="367" type="curve" smooth="yes"/>
      <point x="238" y="367"/>
      <point x="247" y="354"/>
      <point x="247" y="332" type="curve" smooth="yes"/>
      <point x="247" y="303" type="line"/>
      <point x="126" y="303" type="line"/>
      <point x="126" y="215" type="line"/>
      <point x="435" y="215" type="line"/>
      <point x="435" y="331" type="line" smooth="yes"/>
      <point x="435" y="457"/>
      <point x="359" y="528"/>
      <point x="223" y="528" type="curve" smooth="yes"/>
      <point x="87" y="528"/>
      <point x="10" y="457"/>
      <point x="10" y="331" type="curve" smooth="yes"/>
      <point x="10" y="189" type="line" smooth="yes"/>
      <point x="10" y="64"/>
      <point x="87" y="-7"/>
      <point x="223" y="-7" type="curve" smooth="yes"/>
    </contour>
    <contour>
      <point x="223" y="528" type="move" name="top"/>
    </contour>
  </outline>
</glyph>
<glyph name="f" format="1">
  <advance width="293"/>
  <unicode hex="0066"/>
  <outline>
    <contour>
      <point x="231" y="0" type="line"/>
      <point x="231" y="539" type="line" smooth="yes"/>
      <point x="231" y="557"/>
      <point x="244" y="572"/>
      <point x="268" y="575" type="curve"/>
      <point x="275" y="575" type="line"/>
      <point x="275" y="700" type="line"/>
      <point x="268" y="700" type="line"/>
      <point x="126" y="707"/>
      <point x="43" y="683"/>
      <point x="43" y="556" type="curve" smooth="yes"/>
      <point x="43" y="0" type="line"/>
    </contour>
    <contour>
      <point x="289" y="390" type="line"/>
      <point x="289" y="520" type="line"/>
      <point x="2" y="520" type="line"/>
      <point x="2" y="390" type="line"/>
    </contour>
  </outline>
</glyph>
<glyph name="g" format="1">
  <advance width="448"/>
  <unicode hex="0067"/>
  <outline>
    <contour>
      <point x="379" y="-233"/>
      <point x="432" y="-115"/>
      <point x="432" y="34" type="curve" smooth="yes"/>
      <point x="432" y="520" type="line"/>
      <point x="244" y="520" type="line"/>
      <point x="244" y="54" type="line" smooth="yes"/>
      <point x="244" y="-14"/>
      <point x="237" y="-56"/>
      <point x="92" y="-45" type="curve"/>
      <point x="92" y="-207" type="line"/>
    </contour>
    <component base="b.bowl" xOffset="279" xScale="-1"/>
  </outline>
</glyph>
<glyph name="i" format="1">
  <advance width="224"/>
  <unicode hex="0069"/>
  <outline>
    <contour>
      <point x="206" y="0" type="line"/>
      <point x="206" y="520" type="line"/>
      <point x="18" y="520" type="line"/>
      <point x="18" y="0" type="line"/>
    </contour>
    <contour>
      <point x="175" y="542"/>
      <point x="216" y="584"/>
      <point x="216" y="647" type="curve" smooth="yes"/>
      <point x="216" y="710"/>
      <point x="175" y="752"/>
      <point x="112" y="752" type="curve" smooth="yes"/>
      <point x="50" y="752"/>
      <point x="8" y="710"/>
      <point x="8" y="647" type="curve" smooth="yes"/>
      <point x="8" y="584"/>
      <point x="50" y="542"/>
      <point x="112" y="542" type="curve" smooth="yes"/>
    </contour>
  </outline>
</glyph>
<glyph name="j" format="1">
  <advance width="222"/>
  <unicode hex="006A"/>
  <outline>
    <contour>
      <point x="203" y="-210"/>
      <point x="208" y="-120"/>
      <point x="208" y="29" type="curve" smooth="yes"/>
      <point x="208" y="520" type="line"/>
      <point x="20" y="520" type="line"/>
      <point x="20" y="29" type="line" smooth="yes"/>
      <point x="20" y="-19"/>
      <point x="5" y="-49"/>
      <point x="-76" y="-41" type="curve"/>
      <point x="-76" y="-201" type="line"/>
    </contour>
    <contour>
      <point x="175" y="542"/>
      <point x="218" y="589"/>
      <point x="218" y="647" type="curve" smooth="yes"/>
      <point x="218" y="705"/>
      <point x="166" y="752"/>
      <point x="114" y="752" type="curve" smooth="yes"/>
      <point x="61" y="752"/>
      <point x="10" y="705"/>
      <point x="10" y="647" type="curve" smooth="yes"/>
      <point x="10" y="589"/>
      <point x="52" y="542"/>
      <point x="114" y="542" type="curve" smooth="yes"/>
    </contour>
  </outline>
</glyph>
<glyph name="l" format="1">
  <advance width="220"/>
  <unicode hex="006C"/>
  <outline>
    <contour>
      <point x="204" y="0" type="line"/>
      <point x="204" y="700" type="line"/>
      <point x="16" y="700" type="line"/>
      <point x="16" y="0" type="line"/>
    </contour>
  </outline>
</glyph>
<glyph name="m" format="1">
  <advance width="682"/>
  <unicode hex="006D"/>
  <outline>
    <contour>
      <point x="204" y="0" type="line"/>
      <point x="204" y="520" type="line"/>
      <point x="16" y="520" type="line"/>
      <point x="16" y="0" type="line"/>
    </contour>
    <contour>
      <point x="436" y="0" type="line"/>
      <point x="436" y="348" type="line" smooth="yes"/>
      <point x="436" y="459"/>
      <point x="395" y="528"/>
      <point x="294" y="528" type="curve" smooth="yes"/>
      <point x="257" y="528"/>
      <point x="157" y="515"/>
      <point x="158" y="335" type="curve"/>
      <point x="204" y="335" type="line"/>
      <point x="204" y="356"/>
      <point x="212" y="367"/>
      <point x="227" y="367" type="curve" smooth="yes"/>
      <point x="241" y="367"/>
      <point x="248" y="356"/>
      <point x="248" y="335" type="curve" smooth="yes"/>
      <point x="248" y="0" type="line"/>
    </contour>
    <contour>
      <point x="668" y="0" type="line"/>
      <point x="668" y="348" type="line" smooth="yes"/>
      <point x="668" y="459"/>
      <point x="627" y="528"/>
      <point x="526" y="528" type="curve" smooth="yes"/>
      <point x="485" y="528"/>
      <point x="385" y="515"/>
      <point x="386" y="335" type="curve"/>
      <point x="436" y="335" type="line"/>
      <point x="436" y="356"/>
      <point x="444" y="367"/>
      <point x="459" y="367" type="curve" smooth="yes"/>
      <point x="473" y="367"/>
      <point x="480" y="356"/>
      <point x="480" y="335" type="curve" smooth="yes"/>
      <point x="480" y="0" type="line"/>
    </contour>
  </outline>
</glyph>
<glyph name="o" format="1">
  <advance width="445"/>
  <unicode hex="006F"/>
  <outline>
    <contour>
      <point x="359" y="-7"/>
      <point x="435" y="67"/>
      <point x="435" y="190" type="curve" smooth="yes"/>
      <point x="435" y="330" type="line" smooth="yes"/>
      <point x="435" y="456"/>
      <point x="359" y="532"/>
      <point x="223" y="532" type="curve" smooth="yes"/>
      <point x="87" y="532"/>
      <point x="10" y="456"/>
      <point x="10" y="330" type="curve" smooth="yes"/>
      <point x="10" y="190" type="line" smooth="yes"/>
      <point x="10" y="67"/>
      <point x="87" y="-7"/>
      <point x="223" y="-7" type="curve" smooth="yes"/>
    </contour>
    <contour>
      <point x="206" y="154"/>
      <point x="198" y="165"/>
      <point x="198" y="186" type="curve" smooth="yes"/>
      <point x="198" y="339" type="line" smooth="yes"/>
      <point x="198" y="360"/>
      <point x="206" y="371"/>
      <point x="223" y="371" type="curve" smooth="yes"/>
      <point x="239" y="371"/>
      <point x="247" y="360"/>
      <point x="247" y="339" type="curve" smooth="yes"/>
      <point x="247" y="186" type="line" smooth="yes"/>
      <point x="247" y="165"/>
      <point x="239" y="154"/>
      <point x="223" y="154" type="curve" smooth="yes"/>
    </contour>
  </outline>
</glyph>
<glyph name="r" format="1">
  <advance width="339"/>
  <unicode hex="0072"/>
  <outline>
    <contour>
      <point x="204" y="273" type="line"/>
      <point x="204" y="294"/>
      <point x="216" y="318"/>
      <point x="235" y="327" type="curve" smooth="yes"/>
      <point x="259" y="338"/>
      <point x="298" y="333"/>
      <point x="308" y="325" type="curve"/>
      <point x="337" y="510" type="line"/>
      <point x="328" y="519"/>
      <point x="312" y="527"/>
      <point x="287" y="527" type="curve" smooth="yes"/>
      <point x="170" y="527"/>
      <point x="176" y="352"/>
      <point x="176" y="273" type="curve"/>
    </contour>
    <contour>
      <point x="204" y="1" type="line"/>
      <point x="204" y="520" type="line"/>
      <point x="16" y="520" type="line"/>
      <point x="16" y="1" type="line"/>
    </contour>
  </outline>
</glyph>
<glyph name="s" format="1">
  <advance width="433"/>
  <unicode hex="0073"/>
  <outline>
    <contour>
      <point x="344" y="-8"/>
      <point x="427" y="52"/>
      <point x="427" y="151" type="curve" smooth="yes"/>
      <point x="427" y="253"/>
      <point x="338" y="285"/>
      <point x="267" y="306" type="curve" smooth="yes"/>
      <point x="240" y="314"/>
      <point x="197" y="327"/>
      <point x="197" y="357" type="curve" smooth="yes"/>
      <point x="197" y="368"/>
      <point x="203" y="383"/>
      <point x="218" y="383" type="curve" smooth="yes"/>
      <point x="230" y="383"/>
      <point x="240" y="374"/>
      <point x="240" y="357" type="curve" smooth="yes"/>
      <point x="240" y="346" type="line"/>
      <point x="415" y="346" type="line"/>
      <point x="415" y="346" type="line" smooth="yes"/>
      <point x="415" y="455"/>
      <point x="336" y="528"/>
      <point x="213" y="528" type="curve" smooth="yes"/>
      <point x="96" y="528"/>
      <point x="17" y="463"/>
      <point x="17" y="358" type="curve" smooth="yes"/>
      <point x="17" y="258"/>
      <point x="89" y="215"/>
      <point x="145" y="197" type="curve" smooth="yes"/>
      <point x="188" y="183"/>
      <point x="238" y="177"/>
      <point x="238" y="149" type="curve" smooth="yes"/>
      <point x="238" y="138"/>
      <point x="231" y="130"/>
      <point x="219" y="130" type="curve" smooth="yes"/>
      <point x="207" y="130"/>
      <point x="190" y="139"/>
      <point x="190" y="161" type="curve" smooth="yes"/>
      <point x="190" y="162" type="line"/>
      <point x="10" y="162" type="line"/>
      <point x="10" y="156" type="line"/>
      <point x="10" y="58"/>
      <point x="93" y="-8"/>
      <point x="221" y="-8" type="curve" smooth="yes"/>
    </contour>
    <contour>
      <point x="213" y="528" type="move" name="top"/>
    </contour>
  </outline>
</glyph>
<glyph name="t" format="1">
  <advance width="295"/>
  <unicode hex="0074"/>
  <outline>
    <contour>
      <point x="276" y="7" type="line"/>
      <point x="276" y="169" type="line"/>
      <point x="259" y="169" type="line"/>
      <point x="241" y="168"/>
      <point x="228" y="173"/>
      <point x="228" y="199" type="curve"/>
      <point x="228" y="660" type="line"/>
      <point x="48" y="660" type="line"/>
      <point x="48" y="116" type="line"/>
      <point x="48" y="17"/>
      <point x="115" y="-11"/>
      <point x="213" y="0" type="curve" smooth="yes"/>
    </contour>
    <contour>
      <point x="291" y="390" type="line"/>
      <point x="291" y="520" type="line"/>
      <point x="0" y="520" type="line"/>
      <point x="0" y="390" type="line"/>
    </contour>
  </outline>
</glyph>
<glyph name="u" format="1">
  <advance width="450"/>
  <unicode hex="0075"/>
  <outline>
    <contour>
      <point x="434" y="0" type="line"/>
      <point x="434" y="520" type="line"/>
      <point x="246" y="520" type="line"/>
      <point x="246" y="0" type="line"/>
    </contour>
    <contour>
      <point x="14" y="520" type="line"/>
      <point x="14" y="144" type="line" smooth="yes"/>
      <point x="14" y="31"/>
      <point x="84" y="-8"/>
      <point x="154" y="-8" type="curve" smooth="yes"/>
      <point x="210" y="-8"/>
      <point x="276" y="8"/>
      <point x="275" y="185" type="curve"/>
      <point x="246" y="185" type="line"/>
      <point x="246" y="164"/>
      <point x="238" y="153"/>
      <point x="223" y="153" type="curve" smooth="yes"/>
      <point x="209" y="153"/>
      <point x="202" y="164"/>
      <point x="202" y="185" type="curve" smooth="yes"/>
      <point x="202" y="520" type="line"/>
    </contour>
  </outline>
</glyph>
<glyph name="v" format="1">
  <advance width="472"/>
  <unicode hex="0076"/>
  <outline>
    <contour>
      <point x="339" y="-2" type="line"/>
      <point x="464" y="518" type="line"/>
      <point x="260" y="520" type="line"/>
      <point x="235" y="256" type="line"/>
      <point x="210" y="520" type="line"/>
      <point x="6" y="520" type="line"/>
      <point x="131" y="0" type="line"/>
    </contour>
  </outline>
</glyph>
<glyph name="w" format="1">
  <advance width="649"/>
  <unicode hex="0077"/>
  <outline>
    <contour>
      <point x="294" y="0" type="line"/>
      <point x="321" y="211" type="line"/>
      <point x="350" y="0" type="line"/>
      <point x="531" y="0" type="line"/>
      <point x="643" y="518" type="line"/>
      <point x="465" y="520" type="line"/>
      <point x="438" y="256" type="line"/>
      <point x="406" y="520" type="line"/>
      <point x="245" y="520" type="line"/>
      <point x="215" y="256" type="line"/>
      <point x="187" y="520" type="line"/>
      <point x="6" y="520" type="line"/>
      <point x="120" y="0" type="line"/>
    </contour>
  </outline>
</glyph>
<glyph name="y" format="1">
  <advance width="461"/>
  <unicode hex="0079"/>
  <outline>
    <contour>
      <point x="40" y="-199" type="line"/>
      <point x="247" y="-199"/>
      <point x="284" y="-140"/>
      <point x="323" y="-2" type="curve"/>
      <point x="453" y="518" type="line"/>
      <point x="251" y="520" type="line"/>
      <point x="230" y="252" type="line"/>
      <point x="207" y="520" type="line"/>
      <point x="6" y="520" type="line"/>
      <point x="135" y="0" type="line"/>
      <point x="143" y="-40"/>
      <point x="105" y="-45"/>
      <point x="37" y="-45" type="curve"/>
      <point x="28" y="-45" type="line"/>
      <point x="28" y="-199" type="line"/>
    </contour>
  </outline>
</glyph>
<glyph name="registered" format="1">
  <advance width="882"/>
  <unicode hex="00AE"/>
  <outline>
    <contour>
      <point x="641" y="-62"/>
      <point x="782" y="80"/>
      <point x="782" y="292" type="curve" smooth="yes"/>
      <point x="782" y="503"/>
      <point x="641" y="644"/>
      <point x="429" y="644" type="curve" smooth="yes"/>
      <point x="218" y="644"/>
      <point x="77" y="503"/>
      <point x="77" y="292" type="curve" smooth="yes"/>
      <point x="77" y="80"/>
      <point x="218" y="-62"/>
      <point x="429" y="-62" type="curve" smooth="yes"/>
    </contour>
    <contour>
      <point x="278" y="38"/>
      <point x="177" y="140"/>
      <point x="177" y="292" type="curve" smooth="yes"/>
      <point x="177" y="443"/>
      <point x="278" y="544"/>
      <point x="429" y="544" type="curve" smooth="yes"/>
      <point x="581" y="544"/>
      <point x="682" y="443"/>
      <point x="682" y="292" type="curve" smooth="yes"/>
      <point x="682" y="140"/>
      <point x="581" y="38"/>
      <point x="429" y="38" type="curve" smooth="yes"/>
    </contour>
    <component base="R" xOffset="335" yOffset="133" xScale="0.45" yScale="0.45"/>
  </outline>
</glyph>
<glyph name="idotless" format="1">
  <advance width="216"/>
  <unicode hex="0131"/>
  <outline>
    <contour>
      <point x="202" y="0" type="line"/>
      <point x="202" y="520" type="line"/>
      <point x="14" y="520" type="line"/>
      <point x="14" y="0" type="line"/>
    </contour>
    <contour>
      <point x="108" y="533" type="move" name="top"/>
    </contour>
  </outline>
</glyph>
<glyph name="circumflexcomb" format="1">
  <advance width="278"/>
  <unicode hex="0302"/>
  <outline>
    <contour>
      <point x="81" y="565" type="line"/>
      <point x="139" y="627" type="line"/>
      <point x="195" y="565" type="line"/>
      <point x="278" y="565" type="line"/>
      <point x="195" y="694" type="line"/>
      <point x="81" y="694" type="line"/>
      <point x="0" y="565" type="line"/>
    </contour>
    <contour>
      <point x="139" y="520" type="move" name="_top"/>
    </contour>
  </outline>
</glyph>
<glyph name="tildecomb" format="1">
  <advance width="323"/>
  <unicode hex="0303"/>
  <outline>
    <contour>
      <point x="0" y="660" type="line"/>
      <point x="20" y="690"/>
      <point x="52" y="705"/>
      <point x="90" y="705" type="curve" smooth="yes"/>
      <point x="127" y="705"/>
      <point x="158" y="690"/>
      <point x="176" y="681" type="curve" smooth="yes"/>
      <point x="199" y="670"/>
      <point x="217" y="662"/>
      <point x="243" y="662" type="curve" smooth="yes"/>
      <point x="274" y="662"/>
      <point x="293" y="673"/>
      <point x="322" y="695" type="curve"/>
      <point x="323" y="585" type="line"/>
      <point x="299" y="562"/>
      <point x="273" y="546"/>
      <point x="234" y="546" type="curve" smooth="yes"/>
      <point x="198" y="546"/>
      <point x="169" y="560"/>
      <point x="143" y="572" type="curve" smooth="yes"/>
      <point x="124" y="581"/>
      <point x="106" y="589"/>
      <point x="81" y="589" type="curve" smooth="yes"/>
      <point x="52" y="589"/>
      <point x="24" y="577"/>
      <point x="1" y="550" type="curve"/>
    </contour>
    <contour>
      <point x="162" y="520" type="move" name="_top"/>
    </contour>
  </outline>
</glyph>
<glyph name="ringcomb" format="1">
  <advance width="222"/>
  <unicode hex="030A"/>
  <outline>
    <contour>
      <point x="173" y="543"/>
      <point x="222" y="592"/>
      <point x="222" y="654" type="curve" smooth="yes"/>
      <point x="222" y="716"/>
      <point x="173" y="765"/>
      <point x="111" y="765" type="curve" smooth="yes"/>
      <point x="49" y="765"/>
      <point x="0" y="716"/>
      <point x="0" y="654" type="curve" smooth="yes"/>
      <point x="0" y="592"/>
      <point x="49" y="543"/>
      <point x="111" y="543" type="curve" smooth="yes"/>
    </contour>
    <contour>
      <point x="91" y="616"/>
      <point x="75" y="633"/>
      <point x="75" y="654" type="curve" smooth="yes"/>
      <point x="75" y="675"/>
      <point x="91" y="692"/>
      <point x="111" y="692" type="curve" smooth="yes"/>
      <point x="131" y="692"/>
      <point x="147" y="675"/>
      <point x="147" y="654" type="curve" smooth="yes"/>
      <point x="147" y="633"/>
      <point x="131" y="616"/>
      <point x="111" y="616" type="curve" smooth="yes"/>
    </contour>
    <contour>
      <point x="111" y="520" type="move" name="_top"/>
    </contour>
  </outline>
</glyph>
<glyph name="quoteleft" format="1">
  <advance width="231"/>
  <unicode hex="2018"/>
  <outline>
    <contour>
      <point x="188" y="700" type="line"/>
      <point x="0" y="700" type="line"/>
      <point x="83" y="460" type="line"/>
      <point x="231" y="460" type="line"/>
    </contour>
  </outline>
</glyph>
<glyph name="quotedblleft" format="1">
  <advance width="423"/>
  <unicode hex="201C"/>
  <outline>
    <contour>
      <point x="253" y="460" type="line"/>
      <point x="187" y="700" type="line"/>
      <point x="0" y="700" type="line"/>
      <point x="111" y="460" type="line"/>
    </contour>
    <contour>
      <point x="423" y="460" type="line"/>
      <point x="404" y="700" type="line"/>
      <point x="219" y="700" type="line"/>
      <point x="293" y="460" type="line"/>
    </contour>
  </outline>
</glyph>
<glyph name="a.alt" format="1">
  <advance width="449"/>
  <outline>
    <contour>
      <point x="433" y="0" type="line"/>
      <point x="433" y="520" type="line"/>
      <point x="245" y="520" type="line"/>
      <point x="245" y="0" type="line"/>
    </contour>
    <component base="b.bowl" xOffset="281" xScale="-1"/>
  </outline>
</glyph>
<glyph name="b.bowl" format="1">
  <advance width="267"/>
  <outline>
    <contour>
      <point x="235" y="-8"/>
      <point x="266" y="53"/>
      <point x="267" y="170" type="curve" smooth="yes"/>
      <point x="267" y="166"/>
      <point x="267" y="235"/>
      <point x="267" y="260" type="curve"/>
      <point x="267" y="284"/>
      <point x="267" y="350"/>
      <point x="267" y="350" type="curve" smooth="yes"/>
      <point x="266" y="466"/>
      <point x="235" y="528"/>
      <point x="126" y="528" type="curve" smooth="yes"/>
      <point x="93" y="528"/>
      <point x="9" y="514"/>
      <point x="1" y="350" type="curve" smooth="yes"/>
      <point x="0" y="345"/>
      <point x="0" y="313"/>
      <point x="0" y="260" type="curve"/>
      <point x="0" y="241"/>
      <point x="0" y="175"/>
      <point x="0" y="170" type="curve" smooth="yes"/>
      <point x="5" y="6"/>
      <point x="93" y="-8"/>
      <point x="126" y="-8" type="curve" smooth="yes"/>
    </contour>
    <contour>
      <point x="51" y="154"/>
      <point x="43" y="158"/>
      <point x="40" y="164" type="curve" smooth="yes"/>
      <point x="35" y="175"/>
      <point x="34" y="195"/>
      <point x="34" y="260" type="curve" smooth="yes"/>
      <point x="34" y="328"/>
      <point x="32" y="344"/>
      <point x="40" y="356" type="curve" smooth="yes"/>
      <point x="44" y="362"/>
      <point x="50" y="367"/>
      <point x="58" y="367" type="curve" smooth="yes"/>
      <point x="65" y="367"/>
      <point x="71" y="362"/>
      <point x="73" y="356" type="curve" smooth="yes"/>
      <point x="77" y="343"/>
      <point x="79" y="328"/>
      <point x="79" y="260" type="curve" smooth="yes"/>
      <point x="79" y="196"/>
      <point x="79" y="176"/>
      <point x="73" y="164" type="curve" smooth="yes"/>
      <point x="70" y="158"/>
      <point x="65" y="154"/>
      <point x="58" y="154" type="curve" smooth="yes"/>
    </contour>
  </outline>
</glyph>
